<mxfile host="app.diagrams.net" modified="2022-04-15T07:03:48.163Z" agent="5.0 (Macintosh; Intel Mac OS X 10_15_7) AppleWebKit/537.36 (KHTML, like Gecko) Chrome/100.0.4896.75 Safari/537.36" etag="uAD_ijaz5rLuqTVa8_BM" version="17.2.4" type="github">
  <diagram id="24eeG6bR0SF8-105rqGL" name="Page-1">
    <mxGraphModel dx="2066" dy="1052" grid="1" gridSize="10" guides="1" tooltips="1" connect="1" arrows="1" fold="1" page="1" pageScale="1" pageWidth="827" pageHeight="1169" math="0" shadow="0">
      <root>
        <mxCell id="0" />
        <mxCell id="1" parent="0" />
        <mxCell id="vpiutOLmVUoePBKLMPzW-2" value="dispatcher -A-1" style="rounded=0;whiteSpace=wrap;html=1;" vertex="1" parent="1">
          <mxGeometry x="230" y="70" width="110" height="40" as="geometry" />
        </mxCell>
        <mxCell id="vpiutOLmVUoePBKLMPzW-3" value="dispatcher -B-1" style="rounded=0;whiteSpace=wrap;html=1;" vertex="1" parent="1">
          <mxGeometry x="230" y="120" width="110" height="40" as="geometry" />
        </mxCell>
      </root>
    </mxGraphModel>
  </diagram>
</mxfile>
